# xmcd
#
# Track frame offsets:
#	150
#	10443
#	21343
#	33506
#	44307
#	53969
#	71275
#	83899
#	101502
#	114364
#	132194
#	148807
#	162692
#	174848
#	185389
#	193823
#	203209
#	213748
#
# Disc length: 2998 seconds
#
# Revision: 0
# Processed by: cddbd v1.5.2PL0 Copyright (c) Steve Scherf et al.
# Submitted via: audiograbber 1.83.01
#
DISCID=070bb412
DTITLE=Johnny Cash - The gospel Collection
DYEAR=2010
DGENRE=Gospel
TTITLE0=I Was There When It Happened
TTITLE1=Belshazzar
TTITLE2=Thats Enough
TTITLE3=The Old Account
TTITLE4=The Great Speckled Bird
TTITLE5=Troublesome Waters
TTITLE6=(There´ll be) Peace In The Valley (For Me)
TTITLE7=Were You There (When They Crucified My Lord)
TTITLE8=He Turned Water Into Wine
TTITLE9=Jesus Was A Carpenter
TTITLE10=The Greatest Cowboy Of Them All
TTITLE11=Keep Me From Blowing Away
TTITLE12=Far Side Banks Of Jordan
TTITLE13=Daddy Sang Bass
TTITLE14=Swing Low, Sweet Chariot
TTITLE15=It Was Jesus
TTITLE16=God Will
TTITLE17=Amazing Grace
EXTD=
EXTT0=
EXTT1=
EXTT2=
EXTT3=
EXTT4=
EXTT5=
EXTT6=
EXTT7=
EXTT8=
EXTT9=
EXTT10=
EXTT11=
EXTT12=
EXTT13=
EXTT14=
EXTT15=
EXTT16=
EXTT17=
PLAYORDER=
